<svg width="224" height="473" viewBox="0 0 224 473" fill="none" xmlns="http://www.w3.org/2000/svg">
<path d="M75 429L1 472V322L75 281V429Z" fill="url(#paint0_linear_2_12)"/>
<path d="M152 322V386L223 344V281L75 196V126L152 171V238.715L223 196V126L1 1V236L152 322Z" fill="url(#paint1_linear_2_12)"/>
<path d="M75 429L1 472V322L75 281V429Z" stroke="url(#paint2_linear_2_12)"/>
<path d="M75 429L1 472V322L75 281V429Z" stroke="url(#paint3_linear_2_12)"/>
<path d="M152 322V386L223 344V281L75 196V126L152 171V238.715L223 196V126L1 1V236L152 322Z" stroke="url(#paint4_linear_2_12)"/>
<path d="M152 322V386L223 344V281L75 196V126L152 171V238.715L223 196V126L1 1V236L152 322Z" stroke="url(#paint5_linear_2_12)"/>
<defs>
<linearGradient id="paint0_linear_2_12" x1="112" y1="1" x2="112" y2="472" gradientUnits="userSpaceOnUse">
<stop stop-color="#53ACFF"/>
<stop offset="1" stop-color="#0A0094"/>
</linearGradient>
<linearGradient id="paint1_linear_2_12" x1="112" y1="1" x2="112" y2="472" gradientUnits="userSpaceOnUse">
<stop stop-color="#53ACFF"/>
<stop offset="1" stop-color="#0A0094"/>
</linearGradient>
<linearGradient id="paint2_linear_2_12" x1="112" y1="1" x2="112" y2="472" gradientUnits="userSpaceOnUse">
<stop stop-color="#53ACFF"/>
<stop offset="1" stop-color="#0A0094"/>
</linearGradient>
<linearGradient id="paint3_linear_2_12" x1="112" y1="1" x2="112" y2="472" gradientUnits="userSpaceOnUse">
<stop stop-color="#53ACFF"/>
<stop offset="1" stop-color="#0A0094"/>
</linearGradient>
<linearGradient id="paint4_linear_2_12" x1="112" y1="1" x2="112" y2="472" gradientUnits="userSpaceOnUse">
<stop stop-color="#53ACFF"/>
<stop offset="1" stop-color="#0A0094"/>
</linearGradient>
<linearGradient id="paint5_linear_2_12" x1="112" y1="1" x2="112" y2="472" gradientUnits="userSpaceOnUse">
<stop stop-color="#53ACFF"/>
<stop offset="1" stop-color="#0A0094"/>
</linearGradient>
</defs>
</svg>
