<svg width="224" height="473" viewBox="0 0 224 473" fill="none" xmlns="http://www.w3.org/2000/svg">
<path d="M75 429L1 472V322L75 281V429Z" fill="black"/>
<path d="M152 322V386L223 344V281L75 196V126L152 171V238.715L223 196V126L1 1V236L152 322Z" fill="black"/>
<path d="M75 429L1 472V322L75 281V429Z" stroke="black"/>
<path d="M75 429L1 472V322L75 281V429Z" stroke="black"/>
<path d="M152 322V386L223 344V281L75 196V126L152 171V238.715L223 196V126L1 1V236L152 322Z" stroke="black"/>
<path d="M152 322V386L223 344V281L75 196V126L152 171V238.715L223 196V126L1 1V236L152 322Z" stroke="black"/>
</svg>
