<svg width="224" height="473" viewBox="0 0 224 473" fill="none" xmlns="http://www.w3.org/2000/svg">
<path d="M9.5 327.5V457L66.5 424V295.5L9.5 327.5Z" fill="url(#paint0_linear_6_2)"/>
<path d="M214.5 339L160.5 371V317L9.5 232V15.5L214.5 130.5V191L160.5 223.5V166L66.5 111V201L214.5 286V339Z" fill="url(#paint1_linear_6_2)"/>
<path d="M9.5 327.5V457L66.5 424V295.5L9.5 327.5Z" stroke="url(#paint2_linear_6_2)" stroke-width="18"/>
<path d="M214.5 339L160.5 371V317L9.5 232V15.5L214.5 130.5V191L160.5 223.5V166L66.5 111V201L214.5 286V339Z" stroke="url(#paint3_linear_6_2)" stroke-width="18"/>
<defs>
<linearGradient id="paint0_linear_6_2" x1="112" y1="15.5" x2="112" y2="457" gradientUnits="userSpaceOnUse">
<stop stop-color="#00FFE1"/>
<stop offset="1" stop-color="#03A2DC"/>
</linearGradient>
<linearGradient id="paint1_linear_6_2" x1="112" y1="15.5" x2="112" y2="457" gradientUnits="userSpaceOnUse">
<stop stop-color="#00FFE1"/>
<stop offset="1" stop-color="#03A2DC"/>
</linearGradient>
<linearGradient id="paint2_linear_6_2" x1="112" y1="15.5" x2="112" y2="457" gradientUnits="userSpaceOnUse">
<stop stop-color="#53ACFF"/>
<stop offset="1" stop-color="#0A0094"/>
</linearGradient>
<linearGradient id="paint3_linear_6_2" x1="112" y1="15.5" x2="112" y2="457" gradientUnits="userSpaceOnUse">
<stop stop-color="#53ACFF"/>
<stop offset="1" stop-color="#0A0094"/>
</linearGradient>
</defs>
</svg>
